<svg xmlns="http://www.w3.org/2000/svg" class="svg-icon" style="width: 1em; height: 1em;vertical-align: middle;fill: currentColor;overflow: hidden;" version="1.1" viewBox="191.61 60.55 765.87 900.51"><path d="M574.543452 199.096501c-11.735275 0-23.346731 0.528026-34.811854 1.555425L539.731598 60.551074 191.608969 337.628624l348.122629 207.807906L539.731598 410.366252c11.248182-2.27174 22.890336-3.466961 34.811854-3.466961 96.130408 0 174.061314 77.532841 174.061314 173.173085s-77.930907 173.173085-174.061314 173.173085c-62.637596 0-117.537973-32.923854-148.195204-82.32089-2.955308-7.743358-6.811126-15.044648-11.44568-21.774933-0.579191-1.322112-1.147126-2.64934-1.693572-3.988848l-1.00591 0.242524c-19.057031-25.210172-49.375547-41.516556-83.524299-41.516556-57.676607 0-104.436584 46.521546-104.436584 103.904465 0 4.481058 0.285502 8.896624 0.838088 13.228279l-4.656043 4.294816c57.394175 138.365324 194.322777 235.747235 354.119203 235.747235 211.491809 0 382.935506-170.575934 382.935506-380.989177C957.478957 369.666294 786.03526 199.096501 574.543452 199.096501z"/></svg>